<?xml version="1.0" encoding="utf-8"?><svg xml:space="preserve" viewBox="0 0 100 100" y="0" x="0" xmlns="http://www.w3.org/2000/svg" id="圖層_1" version="1.1" width="200px" height="200px" xmlns:xlink="http://www.w3.org/1999/xlink" style="width:100%;height:100%;background-size:initial;background-repeat:initial;background-position-y:initial;background-position-x:initial;background-origin:initial;background-image:initial;background-color:rgb(241, 242, 243);background-clip:initial;background-attachment:initial;animation-play-state:paused" ><g class="ldl-scale" style="transform-origin:50% 50%;transform:rotate(0deg) scale(0.78, 0.78);animation-play-state:paused" ><path d="M12.9 45H29v9.4H12.9z" fill="#849b87" style="fill:rgb(41, 84, 119);animation-play-state:paused" ></path>
<path d="M29 45h16.1v9.4H29z" fill="#f47e60" style="fill:rgb(143, 184, 194);animation-play-state:paused" ></path>
<path d="M45.1 45h16.1v9.4H45.1z" fill="#abbd81" style="fill:rgb(1, 33, 59);animation-play-state:paused" ></path>
<path d="M61.1 45h16.1v9.4H61.1z" fill="#f8b26a" style="fill:rgb(64, 145, 160);animation-play-state:paused" ></path>
<path d="M12.9 35.6H29V45H12.9z" fill="#abbd81" style="fill:rgb(1, 33, 59);animation-play-state:paused" ></path>
<path d="M29 35.6h16.1V45H29z" fill="#f8b26a" style="fill:rgb(64, 145, 160);animation-play-state:paused" ></path>
<path d="M45.1 35.6h16.1V45H45.1z" fill="#f47e60" style="fill:rgb(143, 184, 194);animation-play-state:paused" ></path>
<path d="M61.1 35.6h16.1V45H61.1z" fill="#849b87" style="fill:rgb(41, 84, 119);animation-play-state:paused" ></path>
<path d="M12.9 26.2H29v9.4H12.9z" fill="#f8b26a" style="fill:rgb(64, 145, 160);animation-play-state:paused" ></path>
<path d="M29 26.2h16.1v9.4H29z" fill="#abbd81" style="fill:rgb(1, 33, 59);animation-play-state:paused" ></path>
<path d="M45.1 26.2h16.1v9.4H45.1z" fill="#849b87" style="fill:rgb(41, 84, 119);animation-play-state:paused" ></path>
<path fill="#333" d="M92 51.2c1.5-2.4-.2-5.4-3-5.4H69.7c-1.3 0-2.5.9-2.9 2.2l-1 3.5c-.4 1.3-1.5 2.2-2.9 2.2H26.2c-1.3 0-2.5-.9-2.9-2.2l-1-3.5c-.4-1.3-1.5-2.2-2.9-2.2h-8.3c-2.2 0-4 1.9-3.7 4.2l1.8 15.4H83l9-14.2z" style="fill:rgb(161, 189, 198);animation-play-state:paused" ></path>
<path fill="#e15b64" d="M15.6 73.8h59.1c2 0 3.9-1.1 5-2.8l3.5-5.7H9.4l.4 3.3c.3 3 2.8 5.2 5.8 5.2z" style="fill:rgb(59, 81, 223);animation-play-state:paused" ></path>
<circle fill="#e0e0e0" r="3.3" cy="55.3" cx="78.4" style="fill:rgb(62, 73, 142);animation-play-state:paused" ></circle>
<path d="M30.7 59.2h27.7" stroke-miterlimit="10" stroke-linecap="round" stroke-width="3" stroke="#e0e0e0" fill="none" style="stroke:rgb(62, 73, 142);animation-play-state:paused" ></path>
<metadata xmlns:d="https://loading.io/stock/" style="animation-play-state:paused" ><d:name style="animation-play-state:paused" >cargo ship</d:name>
<d:tags style="animation-play-state:paused" >container,express,shipping,sea,ocean,ship,carrier,cargo ship,transportation</d:tags>
<d:license style="animation-play-state:paused" >by</d:license>
<d:slug style="animation-play-state:paused" >cp4x2</d:slug></metadata></g><!-- generated by https://loading.io/ --></svg>