<svg class="svg-icon" style="width: 1em; height: 1em;vertical-align: middle;fill: #ffffff;overflow: hidden;" viewBox="0 0 1024 1024" version="1.1" xmlns="http://www.w3.org/2000/svg"><path d="M844.6 602.4c-12.1-5.2-25.3-8.1-39.2-8.3h-1.3c-56.8 0-103 46.2-103 103 0 23.4 7.9 45 21.1 62.4-54.5 55.2-130.1 89.4-213.6 89.4-77.1 0-147.4-29.2-200.7-77.1 9.6-15.7 15.1-34 15.1-53.7 0-56.8-46.2-103-103-103-1.5 0-2.9 0-4.3 0.1-4.9-21.4-7.5-43.8-7.5-66.7 0-128.5 81.2-238.5 194.9-281.3 12.6 42.7 52.1 73.9 98.8 73.9 48.2 0 88.8-33.3 100-78.2C703.6 296.4 781.6 382.7 803 489.3c0 2.4 0.5 4.7 1.3 6.8 2.9 7.7 10.4 13.2 19.2 13.2 11 0 19.9-8.6 20.4-19.3v-1c0-2.9-0.6-5.7-1.8-8.2-4.5-22.2-11.2-43.8-20.1-64.8-17.1-40.5-41.7-76.9-72.9-108.2-31.3-31.3-67.7-55.8-108.2-72.9-12.3-5.2-24.7-9.6-37.4-13.3-7.9-49-50.5-86.5-101.7-86.5-52.7 0-96.3 39.8-102.3 90.9-7.9 2.7-15.8 5.7-23.6 8.9-40.5 17.1-76.9 41.7-108.2 72.9-31.3 31.3-55.8 67.7-72.9 108.2C177 458 168 502.6 168 548.5c0 25.9 2.9 51.3 8.5 76.1-35.3 16.4-59.8 52.1-59.8 93.5 0 56.8 46.2 103 103 103 22.7 0 43.6-7.4 60.7-19.8 28.3 25.5 60.3 45.9 95.4 60.8 42 17.8 86.6 26.8 132.5 26.8s90.5-9 132.5-26.8c40.5-17.1 76.9-41.7 108.2-72.9 1-1 2-2.1 3-3.1 15.2 8.9 33 14.1 51.9 14.1 56.8 0 103-46.2 103-103 0.2-42.5-25.5-79-62.3-94.8zM501.9 175.1c25.4 0 47.3 15.1 57.3 36.8 3.7 8 5.8 16.9 5.8 26.3 0 5.2-0.6 10.2-1.8 15-6.7 27.5-31.6 48.1-61.2 48.1-28.7 0-52.9-19.2-60.5-45.5-1.6-5.6-2.5-11.5-2.5-17.6 0-8.4 1.7-16.4 4.7-23.8 9.2-23.1 31.8-39.3 58.2-39.3z m-282 606.1c-34.8 0-63-28.3-63-63 0-23.2 12.6-43.4 31.2-54.4 9.3-5.5 20.2-8.6 31.8-8.6 2.7 0 5.3 0.2 7.9 0.5 31 3.9 55.1 30.5 55.1 62.5 0 8.2-1.6 16.1-4.5 23.3-5.2 13-14.5 23.8-26.4 30.9-9.4 5.5-20.4 8.8-32.1 8.8z m584.2-21c-8.9 0-17.3-1.8-25-5.2-12.7-5.5-23.2-15-29.9-27-5.2-9.1-8.1-19.7-8.1-30.9 0-32.1 24.2-58.7 55.3-62.5 2.6-0.3 5.2-0.5 7.8-0.5 11.5 0 22.3 3.1 31.6 8.5 18.8 10.9 31.4 31.3 31.4 54.5-0.1 34.8-28.3 63.1-63.1 63.1z"  /></svg>