<?xml version="1.0" encoding="utf-8"?>
<!-- Generator: Adobe Illustrator 27.5.0, SVG Export Plug-In . SVG Version: 6.00 Build 0)  -->
<svg version="1.1" xmlns="http://www.w3.org/2000/svg" xmlns:xlink="http://www.w3.org/1999/xlink" x="0px" y="0px"
	 viewBox="0 0 750 500" style="enable-background:new 0 0 750 500;" xml:space="preserve">
<g id="BACKGROUND">
	<g>
		<rect style="fill:#969BE2;" width="750" height="500"/>
		<g>
			<defs>
				<rect id="SVGID_1_" width="750" height="500"/>
			</defs>
			<clipPath id="SVGID_00000183945007649664060010000002739268481989134468_">
				<use xlink:href="#SVGID_1_"  style="overflow:visible;"/>
			</clipPath>
			<g style="clip-path:url(#SVGID_00000183945007649664060010000002739268481989134468_);">
				<g>
					<circle style="fill:none;stroke:#7679D1;stroke-width:0.5;stroke-miterlimit:10;" cx="375" cy="250" r="351.153"/>
					<circle style="fill:none;stroke:#7679D1;stroke-width:0.5;stroke-miterlimit:10;" cx="375" cy="250" r="270.321"/>
					<circle style="fill:none;stroke:#7679D1;stroke-width:0.5;stroke-miterlimit:10;" cx="375" cy="250" r="204.098"/>
				</g>
				<line style="fill:none;stroke:#7679D1;stroke-width:0.5;stroke-miterlimit:10;" x1="375" y1="250" x2="375" y2="-101.153"/>
				<line style="fill:none;stroke:#7679D1;stroke-width:0.5;stroke-miterlimit:10;" x1="375" y1="250" x2="126.697" y2="1.697"/>
				<line style="fill:none;stroke:#7679D1;stroke-width:0.5;stroke-miterlimit:10;" x1="375" y1="250" x2="23.847" y2="250"/>
				<line style="fill:none;stroke:#7679D1;stroke-width:0.5;stroke-miterlimit:10;" x1="375" y1="250" x2="126.697" y2="498.303"/>
				<line style="fill:none;stroke:#7679D1;stroke-width:0.5;stroke-miterlimit:10;" x1="375" y1="250" x2="375" y2="601.153"/>
				<line style="fill:none;stroke:#7679D1;stroke-width:0.5;stroke-miterlimit:10;" x1="375" y1="250" x2="623.303" y2="498.303"/>
				<line style="fill:none;stroke:#7679D1;stroke-width:0.5;stroke-miterlimit:10;" x1="375" y1="250" x2="726.153" y2="250"/>
				<line style="fill:none;stroke:#7679D1;stroke-width:0.5;stroke-miterlimit:10;" x1="375" y1="250" x2="623.303" y2="1.697"/>
			</g>
		</g>
	</g>
</g>
<g id="OBJECTS">
	<g>
		<path style="fill:#A4ABEA;" d="M315.939,326.831l30.822-14.58l-5.596-29.635l-34.017-2.337c-2.029-3.721-4.345-7.237-6.894-10.535
			c-0.001-0.001-0.002-0.003-0.003-0.004l11.486-32.108l-24.911-16.998l-25.737,22.427c0,0,0,0,0,0
			c-4.007-1.197-8.099-2.051-12.282-2.589c-0.003-0.001-0.007-0.001-0.01-0.001l-14.588-30.837l-29.634,5.596l-2.339,34.039
			c-3.719,2.029-7.214,4.314-10.506,6.887l-32.139-11.497l-16.998,24.911l22.423,25.731c0,0.001-0.001,0.002-0.001,0.004
			c-1.195,4.003-2.049,8.091-2.582,12.294l-30.839,14.588l5.596,29.634l34.035,2.339c2.029,3.72,4.339,7.211,6.888,10.508
			c0.001,0.001,0.001,0.001,0.002,0.002l-11.496,32.135l24.911,16.998l25.732-22.423c3.999,1.171,8.093,2.049,12.296,2.582
			l14.589,30.841l29.634-5.596l2.339-34.031c0.003-0.002,0.007-0.003,0.01-0.005c3.699-2.025,7.198-4.314,10.493-6.889
			c0.001,0,0.001-0.001,0.002-0.001l32.141,11.498l16.998-24.911L313.36,339.16c0-0.001,0.001-0.003,0.001-0.004
			C314.533,335.156,315.407,331.036,315.939,326.831z M245.817,352.332c-19.404,3.664-38.096-9.091-41.76-28.495
			c-3.659-19.377,9.096-38.069,28.5-41.733c19.377-3.659,38.069,9.096,41.728,28.473
			C277.948,329.981,265.193,348.674,245.817,352.332z"/>
		<path style="fill:#A4ABEA;" d="M642.849,366.687l29.909,0.52l7.124-25.481L654.04,326.66c-0.149-3.715-0.602-7.381-1.325-10.965
			c0-0.002-0.001-0.003-0.001-0.004l21.518-20.783l-12.98-23.055l-28.961,7.629c0,0,0,0,0,0c-2.686-2.499-5.572-4.763-8.652-6.812
			c-0.003-0.002-0.005-0.003-0.008-0.005l0.52-29.923l-25.481-7.124l-15.076,25.859c-3.714,0.149-7.351,0.587-10.94,1.33
			l-20.803-21.539l-23.055,12.98l7.627,28.955c-0.001,0.001-0.001,0.001-0.002,0.002c-2.497,2.683-4.758,5.566-6.812,8.664
			l-29.925-0.52l-7.124,25.481l25.855,15.074c0.149,3.714,0.608,7.358,1.331,10.942c0,0.001,0,0.001,0,0.002l-21.537,20.801
			l12.98,23.055l28.956-7.627c2.689,2.476,5.567,4.759,8.666,6.812l-0.52,29.927l25.481,7.124l15.073-25.853c0.003,0,0.006,0,0.01,0
			c3.697-0.154,7.338-0.593,10.93-1.337c0.001,0,0.001,0,0.002,0l20.805,21.541l23.055-12.98l-7.62-28.929
			c0.001-0.001,0.002-0.002,0.003-0.003C638.506,372.687,640.795,369.787,642.849,366.687z M577.788,359.472
			c-16.684-4.664-26.424-21.964-21.759-38.648c4.658-16.661,21.957-26.4,38.641-21.736c16.661,4.658,26.401,21.957,21.743,38.618
			C611.748,354.39,594.449,364.13,577.788,359.472z"/>
		<path style="fill:#A4ABEA;" d="M497.297,188.237l39.871-18.648l-7.057-38.287l-43.9-3.209c-2.598-4.815-5.568-9.367-8.84-13.638
			c-0.001-0.002-0.003-0.003-0.004-0.005l15.008-41.384l-32.063-22.083l-33.351,28.807c0,0,0,0-0.001,0
			c-5.166-1.567-10.444-2.694-15.841-3.411c-0.004-0.001-0.009-0.001-0.013-0.001l-18.658-39.891l-38.287,7.057l-3.211,43.928
			c-4.813,2.598-9.337,5.529-13.602,8.831l-41.424-15.023l-22.083,32.063l28.801,33.344c-0.001,0.001-0.001,0.003-0.002,0.005
			c-1.566,5.161-2.691,10.434-3.402,15.856l-39.893,18.659l7.057,38.287l43.923,3.211c2.598,4.813,5.561,9.334,8.833,13.604
			c0.001,0.001,0.001,0.002,0.002,0.003l-15.021,41.419l32.063,22.083l33.345-28.802c5.156,1.535,10.435,2.691,15.859,3.402
			l18.66,39.895l38.287-7.056l3.211-43.919c0.004-0.002,0.009-0.004,0.013-0.006c4.786-2.594,9.316-5.528,13.584-8.834
			c0.001-0.001,0.001-0.001,0.002-0.002l41.427,15.024l22.083-32.063l-28.775-33.314c0.001-0.002,0.001-0.003,0.002-0.005
			C495.435,198.976,496.586,193.663,497.297,188.237z M406.63,220.762c-25.069,4.62-49.128-11.95-53.748-37.02
			c-4.614-25.035,11.956-49.093,37.026-53.713c25.035-4.614,49.093,11.956,53.707,36.991
			C448.236,192.09,431.665,216.148,406.63,220.762z"/>
	</g>
	<g>
		<g>
			<g>
				<path style="fill:#6169C9;" d="M336.658,389.2c-0.524,13.849,1.089,27.642,0.565,41.49l-10.572,1.107
					c-1.522-8.447-6.844-15.244-13.404-20.767c-3.591-3.03-7.76-5.374-11.148-8.642c-3.386-3.256-6.009-7.844-5.292-12.493
					c0.729-4.65,5.977-8.558,10.251-6.586c-8.518-19.161-27.005-34.208-47.606-38.19c-4.827-0.927-10.304-1.617-13.267-5.544
					c-2.309-3.08-2.23-7.734,0.201-10.721c2.43-2.999,6.967-4.039,10.45-2.394c-7.165-7.278-13.864-15.038-22.666-20.243
					c-4.17-2.464-8.573-4.747-11.904-8.274c-3.318-3.528-5.402-8.714-3.812-13.298c1.604-4.573,7.848-7.357,11.663-4.375
					c-2.354-4.207-4.903-7.623-8.934-10.258c-4.033-2.647-8.276-5.128-11.482-8.728c-3.205-3.6-5.252-8.658-3.907-13.288
					c1.345-4.63,6.951-7.986,11.258-5.825c-6.676-7.895-11.483-16.672-14.27-26.623c-0.857-3.016-1.502-6.186-0.922-9.268
					c0.51-2.605,2.098-5.143,4.432-6.302c0.263-0.136,0.538-0.261,0.83-0.352c0.151-0.052,0.314-0.105,0.478-0.146
					c2.369-0.597,4.923,0.231,6.893,1.686c1.97,1.455,3.422,3.481,4.745,5.545c5.798,9.046,9.554,19.401,10.9,30.069
					c1.707-3.585,5.344-6.554,9.279-5.991c3.372,0.477,5.701,3.869,6.222,7.232c0.522,3.376-0.301,6.784-0.888,10.143
					c-1.524,8.669-1.391,17.634,0.367,26.261c-0.325-3.336,2.826-6.459,5.872-7.837c3.057-1.379,6.955-0.596,9.246,1.86
					c1.941,2.096,2.639,5.092,2.639,7.957c-0.013,2.866-0.657,5.678-1.034,8.522c-1.501,11.411,1.384,23.338,7.936,32.799
					c-0.544-4.625,4.119-8.135,8.777-8.141c4.657-0.006,8.849,3.13,11.433,7c2.596,3.869,3.893,8.439,5.319,12.863
					c5.396,16.707,13.132,32.652,22.926,47.213c-1.243-4.059,3.926-8.138,8.155-7.871c4.241,0.266,7.683,3.829,9.136,7.818
					C336.961,380.598,336.827,384.957,336.658,389.2z"/>
				<path style="fill:#493D72;" d="M334.079,431.019l-0.917,0.096c-6.012-24.43-16.938-47.503-32.137-67.71
					c-6.349-8.447-13.52-16.47-20.459-24.23c-8.93-9.994-18.172-20.316-25.749-31.643c-12.373-18.504-20.394-39.703-28.139-60.22
					c-6.007-15.873-12.187-32.245-20.387-47.335c0.263-0.136,0.538-0.261,0.83-0.352c8.217,15.136,14.395,31.496,20.391,47.37
					c7.739,20.458,15.732,41.623,28.048,60.037c7.547,11.27,16.764,21.583,25.678,31.543c6.953,7.782,14.138,15.816,20.513,24.284
					C317.047,383.189,328.026,406.425,334.079,431.019z"/>
			</g>
			<g>
				<path style="fill:#6169C9;" d="M447.498,430.56h0.072c-0.024,0.168-0.048,0.323-0.072,0.491V430.56z"/>
				<path style="fill:#6169C9;" d="M578.567,306.122c-3.555,9.637-11.253,17.07-18.734,24.121
					c-7.47,7.051-15.203,14.425-18.842,24.038c-3.065,8.104-2.981,17.238-6.752,25.031c-4.752,9.792-14.844,15.909-25.079,19.596
					c-10.235,3.687-21.105,5.507-31.136,9.708c-10.044,4.19-19.441,11.552-22.661,21.943h-7.793
					c1.508-10.474,9.014-20.267,17.382-26.731c8.499-6.548,18.339-11.109,27.485-16.735c9.146-5.626,17.908-12.713,22.481-22.421
					c5.842-12.414,3.926-26.911,6.021-40.474c2.083-13.527,8.344-26.372,17.729-36.344c4.202-4.477,9.146-8.451,14.928-10.498
					c5.435-1.915,11.72-1.963,16.807,0.694c0.287,0.144,0.575,0.299,0.85,0.479c0.048,0.024,0.084,0.048,0.132,0.072
					C580.147,283.964,582.122,296.474,578.567,306.122z"/>
				<path style="fill:#493D72;" d="M571.253,278.53c-16.987,13.886-29.879,32.98-36.164,53.977c-1.293,4.334-2.37,8.894-3.412,13.3
					c-3.005,12.653-6.105,25.737-14.748,35.53c-6.584,7.47-15.778,12.186-24.72,16.161c-1.413,0.623-2.825,1.245-4.238,1.867
					c-7.518,3.268-15.287,6.656-21.907,11.6c-7.338,5.483-12.27,12.438-14.03,19.596h-0.922c1.76-7.446,6.835-14.664,14.413-20.314
					c6.704-5.016,14.521-8.416,22.086-11.708c1.413-0.622,2.825-1.233,4.238-1.855c8.846-3.938,17.932-8.595,24.409-15.945
					c8.487-9.613,11.564-22.589,14.533-35.134c1.053-4.417,2.143-8.99,3.436-13.348c6.297-21.057,19.189-40.21,36.176-54.204
					C570.69,278.194,570.977,278.35,571.253,278.53z"/>
			</g>
			<g>
				<path style="fill:#7679D1;" d="M327.02,431.693l-15.447,0.717c-4.251-4.707-10.436-5.669-16.648-6.915
					c-2.495-0.496-5.098-1.09-7.035-2.743c-1.518-1.309-2.439-3.49-2.058-5.368c0.063-0.328,0.165-0.645,0.321-0.939
					c0.083-0.173,0.179-0.346,0.289-0.508c1.464-2.085,4.474-2.263,6.969-1.768c5.423,1.088,10.199,3.91,14.767,7.042
					c-8.198-10.976-19.645-19.069-31.431-26.067c-11.773-6.998-24.116-13.099-35.245-21.09c-3.136-2.261-6.216-4.707-8.444-7.868
					c-2.216-3.175-3.494-7.175-2.681-10.946c0.438-2.05,1.448-3.84,2.834-5.361c0.21-0.244,0.446-0.489,0.695-0.722
					c2.366-2.282,5.572-3.836,8.818-4.52c6.557-1.384,13.48,0.05,19.484,2.998c6.016,2.934,11.202,7.311,15.986,11.993
					c13.617,13.365,24.773,29.486,31.661,47.274c-2.073-5.42-2.764-11.346-1.991-17.105c0.319-2.37,1.008-4.912,2.917-6.367
					c0.541-0.402,1.139-0.69,1.768-0.863c0.321-0.093,0.644-0.147,0.981-0.176c2.214-0.22,4.641,0.76,6.251,2.389
					c2.321,2.364,3.347,5.686,4.134,8.901C326.988,406.067,328.108,418.985,327.02,431.693z"/>
				<path style="fill:#493D72;" d="M320.258,432.105l-1.337,0.062c-8.49-8.01-19.399-13.227-30.985-14.783
					c0.063-0.328,0.165-0.645,0.321-0.939C300.276,418.099,311.578,423.636,320.258,432.105z"/>
				<path style="fill:#493D72;" d="M321.66,432.04l-1.051,0.049c-8.647-17.278-21.12-33.467-37.139-48.139
					c-13.424-12.307-29.229-23.49-48.155-34.072c0.21-0.244,0.446-0.489,0.695-0.722c18.899,10.583,34.679,21.78,48.116,34.073
					C300.349,398.1,312.962,414.504,321.66,432.04z"/>
				<path style="fill:#493D72;" d="M324.555,431.905l-0.961,0.045c-0.381-16.881-3.388-33.445-8.941-49.383
					c0.321-0.093,0.644-0.147,0.981-0.176C321.189,398.368,324.172,414.985,324.555,431.905z"/>
			</g>
			<g>
				<g>
					<path style="fill:#7679D1;" d="M515.129,280.744c0.079-0.254,0.159-0.507,0.238-0.761
						c12.43-39.914,40.218-38.527,44.556-38.046l0.012,0.002c0.37,0.038,0.571,0.072,0.571,0.072l-0.128,0.755
						c-6.99,41.056-39.837,38.64-44.655,38.053C515.341,280.78,515.129,280.744,515.129,280.744z"/>
					<path style="fill:#493D72;" d="M515.129,280.744c0.079-0.254,0.159-0.507,0.238-0.761
						c15.89-11.425,30.834-24.152,44.556-38.046l0.012,0.002c0.37,0.038,0.571,0.072,0.571,0.072l-0.128,0.755
						c-13.759,13.899-28.728,26.622-44.655,38.053C515.341,280.78,515.129,280.744,515.129,280.744z"/>
				</g>
				<g>
					<path style="fill:#7679D1;" d="M499.702,325.8c0.093-0.249,0.186-0.498,0.28-0.747c14.584-39.179,42.256-36.28,46.561-35.564
						l0.012,0.003c0.367,0.059,0.566,0.103,0.566,0.103l-0.169,0.747c-9.214,40.615-41.881,36.414-46.66,35.566
						C499.912,325.848,499.702,325.8,499.702,325.8z"/>
					<path style="fill:#493D72;" d="M499.702,325.8c0.093-0.249,0.186-0.498,0.28-0.747c16.488-10.543,32.103-22.438,46.561-35.564
						l0.012,0.003c0.367,0.059,0.566,0.103,0.566,0.103l-0.169,0.747c-14.496,13.13-30.134,25.019-46.66,35.566
						C499.912,325.848,499.702,325.8,499.702,325.8z"/>
				</g>
				<g>
					<path style="fill:#7679D1;" d="M482.297,361.437c0.117-0.239,0.235-0.477,0.352-0.715
						c18.409-37.533,45.655-31.897,49.868-30.756l0.011,0.004c0.36,0.095,0.553,0.159,0.553,0.159l-0.243,0.727
						c-13.209,39.497-45.296,32.068-49.966,30.748C482.501,361.505,482.297,361.437,482.297,361.437z"/>
					<path style="fill:#493D72;" d="M482.297,361.437c0.117-0.239,0.235-0.477,0.352-0.715
						c17.455-8.851,34.176-19.133,49.868-30.756l0.011,0.004c0.36,0.095,0.553,0.159,0.553,0.159l-0.243,0.727
						c-15.73,11.623-32.474,21.897-49.966,30.748C482.501,361.505,482.297,361.437,482.297,361.437z"/>
				</g>
				<g>
					<path style="fill:#7679D1;" d="M460.365,396.212c0.137-0.228,0.274-0.455,0.411-0.683
						c21.507-35.848,48.181-27.936,52.283-26.444l0.011,0.005c0.35,0.125,0.537,0.205,0.537,0.205l-0.303,0.704
						c-16.491,38.243-47.837,28.136-52.38,26.428C460.563,396.298,460.365,396.212,460.365,396.212z"/>
					<path style="fill:#493D72;" d="M460.365,396.212c0.137-0.228,0.274-0.455,0.411-0.683
						c18.139-7.348,35.667-16.185,52.283-26.444l0.011,0.005c0.35,0.125,0.537,0.205,0.537,0.205l-0.303,0.704
						c-16.653,10.256-34.204,19.083-52.38,26.428C460.563,396.298,460.365,396.212,460.365,396.212z"/>
				</g>
				<g>
					<path style="fill:#7679D1;" d="M511.127,293.965c-0.223-0.144-0.447-0.288-0.67-0.432
						c-35.178-22.587-26.457-49.008-24.841-53.063l0.005-0.011c0.135-0.346,0.221-0.531,0.221-0.531l0.694,0.324
						c37.724,17.646,26.668,48.671,24.823,53.16C511.218,293.769,511.127,293.965,511.127,293.965z"/>
					<path style="fill:#493D72;" d="M511.127,293.965c-0.223-0.144-0.447-0.288-0.67-0.432
						c-6.793-18.354-15.093-36.143-24.841-53.063l0.005-0.011c0.135-0.346,0.221-0.531,0.221-0.531l0.694,0.324
						c9.744,16.958,18.034,34.768,24.823,53.16C511.218,293.769,511.127,293.965,511.127,293.965z"/>
				</g>
				<g>
					<path style="fill:#7679D1;" d="M494.477,336.974c-0.208-0.166-0.416-0.332-0.623-0.497
						c-32.723-26.017-21.385-51.425-19.368-55.296l0.006-0.01c0.17-0.331,0.274-0.506,0.274-0.506l0.658,0.392
						c35.754,21.357,21.628,51.11,19.34,55.39C494.587,336.789,494.477,336.974,494.477,336.974z"/>
					<path style="fill:#493D72;" d="M494.477,336.974c-0.208-0.166-0.416-0.332-0.623-0.497
						c-4.909-18.945-11.374-37.48-19.368-55.296l0.006-0.01c0.17-0.331,0.274-0.506,0.274-0.506l0.658,0.392
						c7.986,17.853,14.438,36.408,19.34,55.39C494.587,336.789,494.477,336.974,494.477,336.974z"/>
				</g>
				<g>
					<path style="fill:#7679D1;" d="M473.404,376.296c-0.185-0.191-0.37-0.381-0.556-0.572
						c-29.173-29.944-14.715-53.715-12.225-57.3l0.007-0.009c0.21-0.307,0.336-0.467,0.336-0.467l0.603,0.473
						c32.768,25.704,14.996,53.434,12.185,57.39C473.537,376.126,473.404,376.296,473.404,376.296z"/>
					<path style="fill:#493D72;" d="M473.404,376.296c-0.185-0.191-0.37-0.381-0.556-0.572c-2.476-19.414-6.546-38.616-12.225-57.3
						l0.007-0.009c0.21-0.307,0.336-0.467,0.336-0.467l0.603,0.473c5.666,18.719,9.722,37.941,12.185,57.39
						C473.537,376.126,473.404,376.296,473.404,376.296z"/>
				</g>
				<g>
					<path style="fill:#7679D1;" d="M452.607,406.555c-0.174-0.201-0.347-0.402-0.521-0.604
						c-27.361-31.607-11.531-54.487-8.835-57.92l0.008-0.009c0.228-0.294,0.362-0.447,0.362-0.447l0.574,0.507
						c31.2,27.587,11.828,54.223,8.789,58.007C452.749,406.394,452.607,406.555,452.607,406.555z"/>
					<path style="fill:#493D72;" d="M452.607,406.555c-0.174-0.201-0.347-0.402-0.521-0.604c-1.33-19.526-4.264-38.934-8.835-57.92
						l0.008-0.009c0.228-0.294,0.362-0.447,0.362-0.447l0.574,0.507c4.555,19.02,7.474,38.447,8.789,58.007
						C452.749,406.394,452.607,406.555,452.607,406.555z"/>
				</g>
				<g>
					<path style="fill:#7679D1;" d="M520.759,257.2c-0.115-0.24-0.229-0.48-0.344-0.719c-18.086-37.69,3.205-55.602,6.709-58.204
						l0.01-0.007c0.297-0.224,0.467-0.335,0.467-0.335l0.421,0.64c22.846,34.821-2.849,55.425-6.776,58.277
						C520.939,257.081,520.759,257.2,520.759,257.2z"/>
					<path style="fill:#493D72;" d="M435.421,427.629l-0.67-0.606c43.222-47.515,72.985-107.429,85.663-170.543
						c3.852-19.188,6.125-38.685,6.709-58.204l0.01-0.007c0.297-0.224,0.467-0.335,0.467-0.335l0.421,0.64
						c-0.607,19.549-2.901,39.059-6.776,58.277C508.513,320.058,478.694,380.038,435.421,427.629z"/>
				</g>
			</g>
		</g>
		<g>
			<path style="fill:#493D72;" d="M339.147,431.868h112.988v-91.766c26.149-26.426,40.587-69.349,33.591-105.862
				c-6.996-36.512-33.733-68.839-68.626-81.666s-76.711-5.239-104.249,19.737c-25.189,22.846-37.029,59.511-30.062,92.655
				c1.301,6.188-0.522,12.636-4.722,17.363c-7.063,7.949-14.181,15.672-21.186,23.852c-1.881,2.197-3.891,4.952-3.033,7.714
				c0.566,1.82,2.235,3.035,3.804,4.118c7.59,5.238,15.18,10.477,22.77,15.715c2.485,9.224,0.911,19.103,0.113,28.622
				c-0.798,9.519,0.232,20.217,7.279,26.667c6.508,5.955,16.25,6.533,25.035,5.727c8.784-0.805,26.298-0.369,26.298-0.369V431.868z"
				/>
			<g>
				
					<ellipse transform="matrix(0.1595 -0.9872 0.9872 0.1595 73.8474 586.1948)" style="fill:#332749;" cx="381.167" cy="249.73" rx="82.181" ry="82.181"/>
				<circle style="fill:#7679D1;" cx="381.167" cy="249.73" r="76.776"/>
			</g>
			<g>
				<g>
					<path style="fill:#FFBA1F;" d="M419.456,229.114c0-22.584-19.552-40.601-42.652-38.048
						c-17.886,1.977-32.158,16.586-33.767,34.509c-1.108,12.343,3.649,23.605,11.797,31.325c6.583,6.237,10.875,14.51,12.642,23.406
						l0.001,0.005c0.147,0.74,0.796,1.272,1.55,1.272h24.28c0.754,0,1.403-0.533,1.55-1.272l0,0c1.823-9.18,6.601-17.415,13.252-24
						C415.115,249.374,419.456,239.753,419.456,229.114z"/>
					
						<path style="fill:none;stroke:#FFFFFF;stroke-width:0.75;stroke-linecap:round;stroke-linejoin:round;stroke-miterlimit:10;" d="
						M375.085,281.583c-0.82-17.963-6.202-38.102-15.841-52.753c1.36,1.701,3.931,2.689,6.108,2.613
						c2.177-0.076,4.289-1.23,5.528-3.021c0.594-0.859,0.999-1.892,0.907-2.932c-0.092-1.04-0.762-2.063-1.761-2.367
						c-1.471-0.448-3.048,0.876-3.292,2.394c-0.244,1.518,0.526,3.037,1.56,4.175c1.694,1.863,4.166,2.997,6.683,3.064
						c2.518,0.067,5.046-0.933,6.837-2.704c1.039-1.028,1.861-2.408,1.766-3.867c-0.095-1.459-1.392-2.873-2.842-2.69
						c-1.115,0.141-1.979,1.175-2.159,2.285s0.217,2.248,0.839,3.184c1.407,2.119,4.032,3.363,6.563,3.11
						c2.531-0.253,4.858-1.993,5.816-4.349c0.461-1.132,0.416-2.765-0.725-3.202c-1.182-0.453-2.343,0.873-2.528,2.126
						c-0.321,2.169,1.031,4.38,2.965,5.413c1.934,1.033,4.314,1.003,6.386,0.286c2.072-0.717,3.596-2.015,5.195-3.516
						c-9.639,14.65-15.021,34.789-15.841,52.753"/>
					<path style="fill:#FFFFFF;" d="M360.656,203.913c-4.578,2.957-7.82,7.131-9.645,12.255c-0.78,2.189,0.882,4.709,3.005,5.293
						c2.382,0.655,4.51-0.808,5.293-3.005c1.044-2.932,3.084-5.429,5.69-7.112C369.635,208.349,365.326,200.896,360.656,203.913z"/>
				</g>
				<g>
					<path style="fill:#493D72;" d="M392.929,286.388h-23.524c-0.925,0-1.675-0.75-1.675-1.675v-1.455
						c0-0.925,0.75-1.675,1.675-1.675h23.524c0.925,0,1.675,0.75,1.675,1.675v1.455
						C394.604,285.638,393.854,286.388,392.929,286.388z"/>
					<path style="fill:#DCDEFF;" d="M392.929,291.193h-23.524c-0.925,0-1.675-0.75-1.675-1.675v-1.455
						c0-0.925,0.75-1.675,1.675-1.675h23.524c0.925,0,1.675,0.75,1.675,1.675v1.455
						C394.604,290.443,393.854,291.193,392.929,291.193z"/>
					<path style="fill:#493D72;" d="M392.929,295.998h-23.524c-0.925,0-1.675-0.75-1.675-1.675v-1.455
						c0-0.925,0.75-1.675,1.675-1.675h23.524c0.925,0,1.675,0.75,1.675,1.675v1.455
						C394.604,295.248,393.854,295.998,392.929,295.998z"/>
					<path style="fill:#493D72;" d="M385.631,300.803c0,2.465-1.998,4.464-4.463,4.464c-2.465,0-4.463-1.998-4.463-4.464
						c0-2.465,1.998-4.463,4.463-4.463C383.632,296.34,385.631,298.338,385.631,300.803z"/>
					<path style="fill:#DCDEFF;" d="M392.929,300.803h-23.524c-0.925,0-1.675-0.75-1.675-1.675v-1.455
						c0-0.925,0.75-1.675,1.675-1.675h23.524c0.925,0,1.675,0.75,1.675,1.675v1.455
						C394.604,300.053,393.854,300.803,392.929,300.803z"/>
				</g>
			</g>
		</g>
	</g>
	<g>
		<g>
			<g>
				<path style="fill:#FFBA1F;" d="M640.818,148.142c-2.067,0-4.106-0.546-5.898-1.579l-30.829-17.8
					c-3.638-2.101-5.898-6.014-5.898-10.216V82.949c0-4.2,2.26-8.115,5.898-10.217l30.829-17.797
					c3.584-2.067,8.212-2.068,11.796-0.001l30.829,17.8c3.638,2.101,5.898,6.014,5.898,10.215v35.598c0,4.2-2.26,8.115-5.898,10.217
					l-30.829,17.797C644.924,147.595,642.884,148.142,640.818,148.142z M640.818,54.256c-1.909,0-3.793,0.505-5.447,1.461
					l-30.829,17.797c-3.36,1.94-5.447,5.555-5.447,9.435v35.598c0,3.88,2.087,7.495,5.447,9.434l30.829,17.8
					c3.314,1.91,7.588,1.91,10.894-0.001l30.829-17.797c3.359-1.94,5.447-5.555,5.447-9.435V82.949c0-3.88-2.088-7.495-5.447-9.434
					l-30.829-17.8C644.609,54.761,642.726,54.256,640.818,54.256z"/>
				<path style="fill:#DCDEFF;" d="M602.251,82.197v37.102c0,2.299,1.227,4.424,3.218,5.573l32.131,18.551
					c1.991,1.15,4.444,1.15,6.435,0l32.131-18.551c1.991-1.15,3.218-3.274,3.218-5.573V82.197c0-2.299-1.227-4.424-3.218-5.573
					l-32.131-18.551c-1.991-1.149-4.444-1.149-6.435,0l-32.131,18.551C603.478,77.773,602.251,79.898,602.251,82.197z"/>
				<g>
					<g>
						<path style="fill:#7679D1;" d="M666.888,105.812L644.7,128.001c-2.145,2.144-5.622,2.144-7.767,0l-22.188-22.188
							c-2.144-2.145-2.144-5.622,0-7.767l11.582-11.582l4.521,4.521c0.222-0.821,0.647-1.575,1.266-2.193
							c1.893-1.893,4.975-1.903,6.868-0.01c1.893,1.893,1.893,4.985,0,6.878c-0.618,0.618-1.372,1.043-2.203,1.256l4.047,4.047
							l6.346-6.346l-0.116,1.816c-0.068,0.995,0.299,1.98,1.005,2.685c1.362,1.362,3.584,1.362,4.946,0
							c1.362-1.362,1.352-3.574-0.01-4.936c-0.705-0.705-1.681-1.082-2.685-1.024l-1.797,0.116l6.8-6.801l11.572,11.572
							C669.033,100.19,669.033,103.668,666.888,105.812z"/>
						<path style="fill:#493D72;" d="M656.292,116.428l-6.81-6.81l0.116,1.797c0.058,1.005-0.319,1.98-1.024,2.686
							c-1.362,1.362-3.574,1.372-4.936,0.01s-1.362-3.584,0-4.946c0.705-0.705,1.69-1.072,2.685-1.005l1.816,0.116l-7.313-7.313
							l-5.013,5.013c-0.213-0.831-0.638-1.584-1.256-2.202c-1.893-1.893-4.984-1.893-6.878,0c-1.893,1.893-1.884,4.975,0.01,6.868
							c0.609,0.609,1.372,1.043,2.193,1.266l-4.521,4.521l0.966,0.966l6.81-6.81l-1.797,0.116c-1.005,0.058-1.98-0.319-2.686-1.024
							c-1.362-1.362-1.372-3.574-0.01-4.936c1.362-1.362,3.584-1.362,4.946,0c0.705,0.705,1.072,1.69,1.005,2.686l-0.116,1.816
							l6.347-6.347l4.047,4.047c-0.831,0.213-1.584,0.638-2.202,1.256c-1.893,1.893-1.893,4.985,0,6.878
							c1.893,1.893,4.975,1.884,6.868-0.01c0.609-0.609,1.043-1.372,1.265-2.193l4.521,4.521L656.292,116.428z"/>
					</g>
					<path style="fill:#FFBA1F;" d="M653.003,96.756c-1.362,1.362-3.584,1.362-4.946,0c-0.705-0.705-1.072-1.69-1.005-2.686
						l0.116-1.816l-6.346,6.347l-4.047-4.047c0.831-0.213,1.584-0.638,2.203-1.256c1.893-1.893,1.893-4.985,0-6.878
						c-1.893-1.893-4.975-1.884-6.868,0.01c-0.618,0.618-1.043,1.372-1.265,2.193l-4.521-4.521l10.606-10.607
						c2.144-2.144,5.622-2.144,7.766,0l10.616,10.616l-6.8,6.8l1.797-0.116c1.005-0.058,1.98,0.319,2.685,1.024
						C654.355,93.181,654.365,95.394,653.003,96.756z"/>
				</g>
			</g>
			
				<line style="fill:none;stroke:#FFFFFF;stroke-linecap:round;stroke-linejoin:round;stroke-miterlimit:10;" x1="481.577" y1="186.649" x2="570.293" y2="129.637"/>
		</g>
		<g>
			<g>
				<path style="fill:#EB6592;" d="M529.412,119.973c-1.535,0-3.049-0.405-4.378-1.173l-27.652-15.965
					c-2.701-1.56-4.379-4.466-4.379-7.585V63.322c0-3.119,1.678-6.025,4.379-7.584l27.651-15.964c2.663-1.536,6.101-1.534,8.758,0
					l27.651,15.963c2.701,1.559,4.379,4.466,4.379,7.585V95.25c0,3.119-1.678,6.026-4.379,7.585l-27.651,15.964
					C532.462,119.567,530.947,119.973,529.412,119.973z M529.412,39.37c-1.399,0-2.78,0.37-3.994,1.07l-27.651,15.964
					c-2.463,1.422-3.994,4.073-3.994,6.918V95.25c0,2.844,1.531,5.495,3.994,6.918l27.652,15.965
					c2.426,1.399,5.563,1.398,7.987-0.001l27.651-15.964c2.463-1.422,3.994-4.073,3.994-6.918V63.322
					c0-2.845-1.531-5.496-3.994-6.918L533.405,40.44C532.193,39.74,530.812,39.37,529.412,39.37z"/>
				<path style="fill:#DCDEFF;" d="M496.469,63.241v32.089c0,1.841,0.982,3.542,2.576,4.462l27.79,16.045
					c1.594,0.92,3.558,0.92,5.152,0l27.79-16.045c1.594-0.92,2.576-2.621,2.576-4.462V63.241c0-1.841-0.982-3.542-2.576-4.462
					l-27.79-16.045c-1.594-0.92-3.558-0.92-5.152,0l-27.79,16.045C497.451,59.7,496.469,61.401,496.469,63.241z"/>
				<g>
					<circle style="fill:#B8B9FC;" cx="529.412" cy="79.286" r="24.793"/>
					<g>
						
							<ellipse transform="matrix(0.7071 -0.7071 0.7071 0.7071 98.9976 397.5731)" style="fill:#7679D1;" cx="529.412" cy="79.286" rx="19.732" ry="19.732"/>
						<g>
							<path style="fill:#493D72;" d="M529.412,100.165c-11.512,0-20.879-9.367-20.879-20.879s9.367-20.879,20.879-20.879
								c11.512,0,20.878,9.367,20.878,20.879S540.924,100.165,529.412,100.165z M529.412,60.699
								c-10.249,0-18.587,8.338-18.587,18.587s8.338,18.587,18.587,18.587s18.586-8.338,18.586-18.587
								S539.661,60.699,529.412,60.699z"/>
							<path style="fill:#493D72;" d="M529.412,100.165c-5.667,0-8.724-10.758-8.724-20.879s3.058-20.879,8.724-20.879
								c5.667,0,8.724,10.758,8.724,20.879S535.079,100.165,529.412,100.165z M529.412,60.699c-3.042,0-6.432,7.633-6.432,18.587
								s3.39,18.587,6.432,18.587c3.042,0,6.432-7.633,6.432-18.587S532.454,60.699,529.412,60.699z"/>
							<path style="fill:#493D72;" d="M529.412,88.01c-10.121,0-20.879-3.058-20.879-8.724c0-5.667,10.758-8.724,20.879-8.724
								c10.121,0,20.878,3.058,20.878,8.724C550.29,84.952,539.533,88.01,529.412,88.01z M529.412,72.854
								c-10.954,0-18.587,3.39-18.587,6.432c0,3.042,7.633,6.432,18.587,6.432c10.953,0,18.586-3.39,18.586-6.432
								C547.998,76.244,540.365,72.854,529.412,72.854z"/>
						</g>
					</g>
					<path style="fill:#FFBA1F;" d="M535.29,77.895c0-1.858-1.506-3.364-3.364-3.364c-1.005,0-1.898,0.45-2.514,1.149
						c-0.616-0.699-1.508-1.149-2.514-1.149c-1.858,0-3.364,1.506-3.364,3.364c0,0.936,0.384,1.782,1.001,2.392l-0.002,0
						l4.879,4.405l4.879-4.405h-0.001C534.906,79.677,535.29,78.831,535.29,77.895z M529.411,80.126l-0.013,0
						c0.005-0.005,0.009-0.011,0.013-0.016c0.005,0.005,0.009,0.011,0.014,0.016L529.411,80.126z"/>
				</g>
			</g>
			
				<line style="fill:none;stroke:#FFFFFF;stroke-linecap:round;stroke-linejoin:round;stroke-miterlimit:10;" x1="452.937" y1="163.447" x2="491.327" y2="116.821"/>
		</g>
		<g>
			<g>
				<path style="fill:#FFBA1F;" d="M248.897,91.99c-1.375,0-2.731-0.363-3.922-1.051l-20.495-11.833
					c-2.419-1.396-3.921-3.998-3.921-6.791V48.649c0-2.792,1.502-5.394,3.921-6.791l20.496-11.833c2.382-1.375,5.46-1.375,7.842,0
					l20.495,11.833c2.419,1.397,3.921,3.999,3.921,6.791v23.666c0,2.793-1.502,5.395-3.921,6.791l-20.495,11.833
					C251.628,91.626,250.272,91.99,248.897,91.99z M248.897,29.573c-1.269,0-2.521,0.336-3.621,0.97L224.78,42.376
					c-2.233,1.29-3.621,3.694-3.621,6.272v23.666c0,2.58,1.388,4.983,3.621,6.272l20.495,11.833c2.199,1.269,5.045,1.269,7.243,0
					l20.495-11.833c2.234-1.289,3.621-3.692,3.621-6.272V48.649c0-2.579-1.388-4.982-3.621-6.272l-20.495-11.833
					C251.418,29.909,250.166,29.573,248.897,29.573z"/>
				<path style="fill:#DCDEFF;" d="M223.258,49.394v22.175c0,2.299,1.227,4.424,3.218,5.573L245.68,88.23
					c1.991,1.15,4.444,1.15,6.435,0l19.204-11.088c1.991-1.15,3.218-3.274,3.218-5.573V49.394c0-2.299-1.227-4.424-3.218-5.573
					l-19.204-11.088c-1.991-1.149-4.444-1.149-6.435,0l-19.204,11.088C224.484,44.971,223.258,47.095,223.258,49.394z"/>
				<g>
					<g>
						<path style="fill:#493D72;" d="M248.902,71.535c-7.686,0-14.843-3.452-19.635-9.47l-1.245-1.564l1.24-1.568
							c4.781-6.04,11.939-9.504,19.64-9.504c7.693,0,14.846,3.464,19.627,9.504l1.241,1.568l-1.246,1.564
							C263.731,68.083,256.58,71.535,248.902,71.535z"/>
						<path style="fill:#B8B9FC;" d="M266.555,60.495c-4.132,5.189-10.499,8.521-17.652,8.521c-7.153,0-13.534-3.333-17.666-8.521
							c4.118-5.202,10.499-8.548,17.666-8.548C256.055,51.947,262.436,55.293,266.555,60.495z"/>
					</g>
					<g>
						<path style="fill:#7679D1;" d="M255.419,60.482c0,3.602-2.92,6.521-6.521,6.521s-6.521-2.92-6.521-6.521
							c0-3.601,2.92-6.521,6.521-6.521S255.419,56.88,255.419,60.482z"/>
						<path style="fill:#FFBA1F;" d="M253.488,62.333c0,1.514-1.227,2.74-2.74,2.74s-2.74-1.227-2.74-2.74s1.227-2.741,2.74-2.741
							S253.488,60.819,253.488,62.333z"/>
						<path style="fill:#FFBA1F;" d="M247.014,57.339c0,0.696-0.564,1.26-1.26,1.26c-0.696,0-1.26-0.564-1.26-1.26
							c0-0.696,0.564-1.26,1.26-1.26C246.45,56.078,247.014,56.643,247.014,57.339z"/>
					</g>
				</g>
			</g>
			
				<line style="fill:none;stroke:#FFFFFF;stroke-linecap:round;stroke-linejoin:round;stroke-miterlimit:10;" x1="308.831" y1="151.096" x2="269.771" y2="94.229"/>
		</g>
		<g>
			<g>
				<path style="fill:#EB6592;" d="M155.754,152.186c-2.423,0-4.814-0.641-6.914-1.853l-36.141-20.866
					c-4.265-2.463-6.914-7.052-6.914-11.976V75.758c0-4.924,2.649-9.513,6.914-11.976l36.142-20.866
					c4.201-2.424,9.628-2.424,13.829,0l36.141,20.866c4.265,2.463,6.914,7.052,6.914,11.976v41.733
					c0,4.924-2.649,9.513-6.914,11.976l-36.142,20.866C160.568,151.545,158.177,152.186,155.754,152.186z M155.754,42.12
					c-2.238,0-4.446,0.592-6.386,1.711l-36.142,20.866c-3.938,2.275-6.385,6.513-6.385,11.061v41.733
					c0,4.547,2.447,8.786,6.386,11.061l36.141,20.866c3.88,2.238,8.891,2.238,12.772,0l36.142-20.866
					c3.938-2.275,6.385-6.513,6.385-11.061V75.758c0-4.547-2.447-8.786-6.386-11.061L162.14,43.831
					C160.2,42.711,157.992,42.12,155.754,42.12z"/>
				<path style="fill:#DCDEFF;" d="M110.542,74.236v44.776c0,2.299,1.227,4.424,3.218,5.573l38.777,22.388
					c1.991,1.15,4.444,1.15,6.435,0l38.777-22.388c1.991-1.15,3.218-3.274,3.218-5.573V74.236c0-2.299-1.227-4.424-3.218-5.573
					l-38.777-22.388c-1.991-1.15-4.444-1.15-6.435,0l-38.777,22.388C111.768,69.812,110.542,71.937,110.542,74.236z"/>
				<g>
					<path style="fill:#7679D1;" d="M179.382,120.209h-47.255v-1.191c0-1.606,1.302-2.908,2.908-2.908h41.439
						c1.606,0,2.908,1.302,2.908,2.908V120.209z"/>
					<rect x="147.281" y="112.01" style="fill:#493D72;" width="16.948" height="4.099"/>
					<rect x="154.532" y="76.447" style="fill:#7679D1;" width="2.444" height="35.564"/>
					<g>
						<g>
							<path style="fill:#7679D1;" d="M120.639,90.491c-0.035,0-0.07-0.01-0.101-0.032c-0.08-0.056-0.1-0.165-0.044-0.245
								l10.022-14.382c0.057-0.082,0.167-0.098,0.245-0.044c0.08,0.056,0.1,0.165,0.044,0.245l-10.022,14.382
								C120.749,90.465,120.694,90.491,120.639,90.491z"/>
							<path style="fill:#7679D1;" d="M140.683,90.491c-0.056,0-0.11-0.026-0.145-0.076l-10.022-14.382
								c-0.056-0.08-0.036-0.189,0.044-0.245c0.078-0.054,0.189-0.038,0.245,0.044l10.022,14.382
								c0.056,0.08,0.036,0.189-0.044,0.245C140.753,90.481,140.718,90.491,140.683,90.491z"/>
						</g>
						<path style="fill:#FFBA1F;" d="M120.191,89.753c0,6.244,4.688,11.306,10.47,11.306c5.782,0,10.47-5.062,10.47-11.306H120.191z
							"/>
					</g>
					<g>
						<g>
							<path style="fill:#7679D1;" d="M190.87,90.491c-0.056,0-0.11-0.026-0.145-0.076l-10.022-14.382
								c-0.056-0.08-0.036-0.189,0.044-0.245c0.078-0.054,0.189-0.038,0.245,0.044l10.022,14.382
								c0.056,0.08,0.036,0.189-0.044,0.245C190.94,90.481,190.905,90.491,190.87,90.491z"/>
							<path style="fill:#7679D1;" d="M170.826,90.491c-0.035,0-0.07-0.01-0.101-0.032c-0.08-0.056-0.1-0.165-0.044-0.245
								l10.023-14.382c0.056-0.082,0.167-0.098,0.245-0.044c0.08,0.056,0.1,0.165,0.044,0.245L170.97,90.415
								C170.936,90.465,170.881,90.491,170.826,90.491z"/>
						</g>
						<path style="fill:#FFBA1F;" d="M191.318,89.753c0,6.244-4.688,11.306-10.47,11.306c-5.782,0-10.47-5.062-10.47-11.306H191.318
							z"/>
					</g>
					<g>
						
							<rect x="154.435" y="50.84" transform="matrix(-1.836970e-16 1 -1 -1.836970e-16 231.6875 -79.8212)" style="fill:#7679D1;" width="2.639" height="50.187"/>
						<path style="fill:#493D72;" d="M159.224,75.933c0,2.069-1.553,3.746-3.469,3.746c-1.916,0-3.469-1.677-3.469-3.746
							c0-2.069,1.553-3.746,3.469-3.746C157.67,72.187,159.224,73.864,159.224,75.933z"/>
						<path style="fill:#493D72;" d="M132.736,75.933c0,1.237-0.929,2.24-2.075,2.24c-1.146,0-2.075-1.003-2.075-2.24
							c0-1.237,0.929-2.24,2.075-2.24C131.807,73.693,132.736,74.696,132.736,75.933z"/>
						<path style="fill:#493D72;" d="M182.923,75.933c0,1.237-0.929,2.24-2.075,2.24c-1.146,0-2.075-1.003-2.075-2.24
							c0-1.237,0.929-2.24,2.075-2.24C181.994,73.693,182.923,74.696,182.923,75.933z"/>
					</g>
				</g>
			</g>
			
				<line style="fill:none;stroke:#FFFFFF;stroke-linecap:round;stroke-linejoin:round;stroke-miterlimit:10;" x1="200.967" y1="145.309" x2="277.235" y2="190.631"/>
		</g>
		<g>
			<g>
				<path style="fill:#FFBA1F;" d="M120.999,281.226c-1.994,0-3.962-0.527-5.692-1.524l-29.75-17.177
					c-3.511-2.028-5.692-5.805-5.692-9.858v-34.352c0-4.053,2.181-7.831,5.692-9.859l29.75-17.175c3.458-1.995,7.927-1.995,11.383,0
					l29.75,17.176c3.511,2.027,5.692,5.804,5.692,9.858v34.352c0,4.053-2.181,7.83-5.69,9.858l-29.751,17.176
					C124.962,280.698,122.994,281.226,120.999,281.226z M120.999,190.626c-1.842,0-3.66,0.487-5.257,1.408l-29.75,17.176
					c-3.242,1.872-5.256,5.361-5.256,9.104v34.352c0,3.743,2.014,7.232,5.256,9.103l29.75,17.177
					c3.194,1.844,7.321,1.842,10.512-0.001l29.751-17.176c3.242-1.872,5.255-5.361,5.255-9.103v-34.352
					c0-3.744-2.014-7.233-5.257-9.103l-29.75-17.177C124.659,191.113,122.842,190.626,120.999,190.626z"/>
				<path style="fill:#DCDEFF;" d="M83.782,217.719v35.543c0,2.299,1.227,4.424,3.218,5.573l30.781,17.772
					c1.991,1.15,4.444,1.15,6.435,0l30.781-17.772c1.991-1.15,3.218-3.274,3.218-5.573v-35.543c0-2.299-1.227-4.423-3.218-5.573
					l-30.781-17.772c-1.991-1.15-4.444-1.15-6.435,0L87,212.146C85.009,213.296,83.782,215.42,83.782,217.719z"/>
				<g>
					<g>
						<g>
							<circle style="fill:#7679D1;" cx="120.999" cy="234.384" r="25.678"/>
						</g>
						<g>
							<path style="fill:#493D72;" d="M120.999,255.674c-11.74,0-21.29-9.55-21.29-21.29c0-11.74,9.55-21.29,21.29-21.29
								s21.29,9.55,21.29,21.29C142.289,246.123,132.739,255.674,120.999,255.674z M120.999,216.957
								c-9.609,0-17.427,7.818-17.427,17.427s7.818,17.427,17.427,17.427c9.61,0,17.427-7.818,17.427-17.427
								S130.609,216.957,120.999,216.957z"/>
						</g>
						<g>
							<path style="fill:#493D72;" d="M120.999,247.864c-7.433,0-13.48-6.047-13.48-13.48s6.047-13.48,13.48-13.48
								c7.433,0,13.48,6.047,13.48,13.48S128.432,247.864,120.999,247.864z M120.999,224.767c-5.303,0-9.617,4.314-9.617,9.617
								s4.314,9.617,9.617,9.617c5.303,0,9.617-4.314,9.617-9.617S126.302,224.767,120.999,224.767z"/>
						</g>
						<g>
							<path style="fill:#FFBA1F;" d="M126.641,234.384c0,3.116-2.526,5.642-5.642,5.642s-5.642-2.526-5.642-5.642
								c0-3.116,2.526-5.642,5.642-5.642S126.641,231.268,126.641,234.384z"/>
						</g>
					</g>
					<g>
						<path style="fill:#B8B9FC;" d="M121.93,234.033c-0.148,0-0.297-0.057-0.41-0.17c-0.227-0.227-0.227-0.594,0-0.82
							l17.776-17.776c0.227-0.227,0.594-0.227,0.82,0c0.227,0.227,0.227,0.594,0,0.82l-17.776,17.776
							C122.227,233.976,122.079,234.033,121.93,234.033z"/>
						<polygon style="fill:#B8B9FC;" points="142.449,216.481 138.902,216.481 138.902,212.933 144.06,207.775 144.06,211.322 
							147.608,211.322 						"/>
					</g>
				</g>
			</g>
			
				<line style="fill:none;stroke:#FFFFFF;stroke-linecap:round;stroke-linejoin:round;stroke-miterlimit:10;" x1="178.773" y1="244.001" x2="258.39" y2="248.34"/>
		</g>
		<g>
			<g>
				<path style="fill:#EB6592;" d="M117.691,435.765c-2.423,0-4.813-0.64-6.914-1.851l-36.141-20.869
					c-4.265-2.463-6.914-7.051-6.914-11.975v-41.733c0-4.924,2.649-9.513,6.914-11.977l36.141-20.866
					c4.2-2.421,9.626-2.423,13.829-0.001l36.141,20.868c4.265,2.463,6.914,7.051,6.914,11.976v41.733
					c0,4.924-2.649,9.512-6.914,11.976l-36.141,20.866C122.505,435.123,120.114,435.765,117.691,435.765z M117.691,325.699
					c-2.238,0-4.446,0.592-6.386,1.712l-36.141,20.866c-3.939,2.274-6.386,6.512-6.386,11.061v41.733
					c0,4.548,2.447,8.785,6.386,11.058l36.141,20.868c3.881,2.238,8.893,2.24,12.772-0.001l36.141-20.866
					c3.939-2.274,6.386-6.512,6.386-11.059v-41.733c0-4.548-2.447-8.786-6.386-11.059l-36.141-20.868
					C122.136,326.291,119.928,325.699,117.691,325.699z"/>
				<path style="fill:#DCDEFF;" d="M72.478,357.815v44.776c0,2.299,1.227,4.424,3.218,5.573l38.777,22.388
					c1.991,1.15,4.444,1.15,6.435,0l38.777-22.388c1.991-1.15,3.218-3.274,3.218-5.573v-44.776c0-2.299-1.227-4.424-3.218-5.573
					l-38.777-22.388c-1.991-1.15-4.444-1.15-6.435,0l-38.777,22.388C73.704,353.392,72.478,355.516,72.478,357.815z"/>
				<g>
					<g>
						<polygon style="fill:#7679D1;" points="116.061,374.287 84.098,374.287 116.061,408.966 148.024,374.287 						"/>
						<polygon style="fill:#B8B9FC;" points="139.116,359.791 93.006,359.791 84.098,374.287 148.024,374.287 						"/>
						<polygon style="fill:#7679D1;" points="100.691,374.287 108.376,359.791 100.691,359.791 93.006,359.791 						"/>
						<polygon style="fill:#7679D1;" points="116.061,374.287 123.746,359.791 116.061,359.791 108.376,359.791 						"/>
						<polygon style="fill:#7679D1;" points="131.431,374.287 139.116,359.791 131.431,359.791 123.746,359.791 						"/>
						<polygon style="fill:#B8B9FC;" points="100.691,374.287 116.061,408.966 116.061,374.287 						"/>
						<g>
							<polygon style="fill:#493D72;" points="139.116,359.791 131.431,374.287 139.116,374.287 148.024,374.287 							"/>
							<polygon style="fill:#493D72;" points="131.431,374.287 116.061,408.966 148.024,374.287 							"/>
						</g>
					</g>
					<g>
						<polygon style="fill:#FFBA1F;" points="92.581,352.989 94.155,358.643 99.809,360.217 94.155,361.791 92.581,367.446 
							91.007,361.791 85.353,360.217 91.007,358.643 						"/>
						<polygon style="fill:#FFBA1F;" points="87.407,365.853 88.128,368.442 90.716,369.162 88.128,369.883 87.407,372.471 
							86.687,369.883 84.098,369.162 86.687,368.442 						"/>
						<polygon style="fill:#FFBA1F;" points="148.635,370.047 149.559,373.364 152.876,374.287 149.559,375.21 148.635,378.528 
							147.712,375.21 144.395,374.287 147.712,373.364 						"/>
					</g>
				</g>
			</g>
			
				<line style="fill:none;stroke:#FFFFFF;stroke-linecap:round;stroke-linejoin:round;stroke-miterlimit:10;" x1="185.859" y1="356.734" x2="242.376" y2="326.217"/>
		</g>
		<g>
			<g>
				<path style="fill:#FFBA1F;" d="M217.768,477.992c-1.838,0-3.652-0.486-5.246-1.405l-27.421-15.832
					c-3.236-1.87-5.246-5.35-5.246-9.086v-31.663c0-3.736,2.01-7.218,5.246-9.087l27.421-15.831c3.187-1.838,7.306-1.838,10.492,0
					l27.421,15.832c3.236,1.868,5.246,5.349,5.246,9.086v31.663c0,3.736-2.01,7.217-5.245,9.086l-27.422,15.831
					C221.421,477.506,219.606,477.992,217.768,477.992z M217.768,394.484c-1.698,0-3.374,0.449-4.845,1.299l-27.421,15.831
					c-2.989,1.725-4.845,4.941-4.845,8.392v31.663c0,3.45,1.856,6.665,4.845,8.391l27.421,15.832
					c2.945,1.698,6.748,1.699,9.689-0.001l27.423-15.831c2.988-1.725,4.844-4.941,4.844-8.391v-31.663
					c0-3.451-1.856-6.666-4.845-8.391l-27.421-15.832C221.141,394.933,219.466,394.484,217.768,394.484z"/>
				<path style="fill:#DCDEFF;" d="M183.464,419.747v32.179c0,2.299,1.227,4.423,3.218,5.573l27.868,16.09
					c1.991,1.15,4.444,1.15,6.435,0l27.868-16.09c1.991-1.15,3.218-3.274,3.218-5.573v-32.179c0-2.299-1.227-4.424-3.218-5.573
					l-27.868-16.09c-1.991-1.149-4.444-1.149-6.435,0l-27.868,16.09C184.691,415.324,183.464,417.448,183.464,419.747z"/>
				<g>
					<g>
						
							<ellipse transform="matrix(0.2279 -0.9737 0.9737 0.2279 -260.1593 551.6667)" style="fill:#493D72;" cx="217.768" cy="439.874" rx="21.409" ry="21.409"/>
						
							<ellipse transform="matrix(0.1591 -0.9873 0.9873 0.1591 -251.1449 584.9008)" style="fill:#7679D1;" cx="217.768" cy="439.874" rx="16.725" ry="16.725"/>
						<g>
							<polygon style="fill:#B8B9FC;" points="217.768,453.195 220.971,439.874 217.768,439.874 214.565,439.874 							"/>
							<polygon style="fill:#FFBA1F;" points="217.768,426.553 214.565,439.874 217.768,439.874 220.971,439.874 							"/>
						</g>
					</g>
					<g>
						<path style="fill:#493D72;" d="M219.19,420.752h-2.845v-4.553c0-0.557,0.452-1.009,1.009-1.009h0.827
							c0.557,0,1.009,0.452,1.009,1.009V420.752z"/>
						<path style="fill:#493D72;" d="M217.768,417.995c-3.315,0-6.01-2.696-6.01-6.01c0-3.315,2.696-6.01,6.01-6.01
							c3.315,0,6.01,2.696,6.01,6.01C223.778,415.299,221.082,417.995,217.768,417.995z M217.768,407.087
							c-2.7,0-4.897,2.197-4.897,4.897c0,2.7,2.197,4.897,4.897,4.897c2.7,0,4.897-2.197,4.897-4.897
							C222.665,409.284,220.468,407.087,217.768,407.087z"/>
					</g>
				</g>
			</g>
			
				<line style="fill:none;stroke:#FFFFFF;stroke-linecap:round;stroke-linejoin:round;stroke-miterlimit:10;" x1="248.896" y1="396.227" x2="273.23" y2="370.047"/>
		</g>
		<g>
			<g>
				<path style="fill:#FFBA1F;" d="M655.422,391.973c-2.6,0-5.163-0.688-7.414-1.989l-38.743-22.367
					c-4.572-2.64-7.412-7.559-7.412-12.839v-44.739c0-5.279,2.841-10.199,7.412-12.84l38.745-22.367
					c4.504-2.597,10.321-2.599,14.825-0.001l38.745,22.37c4.572,2.64,7.412,7.559,7.412,12.839v44.739
					c0,5.279-2.841,10.199-7.412,12.84l-38.745,22.367C660.585,391.285,658.022,391.973,655.422,391.973z M655.422,273.979
					c-2.4,0-4.767,0.635-6.846,1.836l-38.745,22.367c-4.222,2.438-6.846,6.982-6.846,11.857v44.739
					c0,4.876,2.624,9.419,6.846,11.856l38.743,22.369c4.159,2.405,9.537,2.404,13.693,0.002l38.745-22.369
					c4.222-2.438,6.846-6.982,6.846-11.857v-44.739c0-4.876-2.624-9.419-6.846-11.856l-38.745-22.37
					C660.187,274.613,657.82,273.979,655.422,273.979z"/>
				<path style="fill:#DCDEFF;" d="M606.953,308.14v48.537c0,2.299,1.227,4.424,3.218,5.573l42.034,24.268
					c1.991,1.15,4.444,1.15,6.435,0l42.034-24.268c1.991-1.15,3.218-3.274,3.218-5.573V308.14c0-2.299-1.227-4.423-3.218-5.573
					l-42.034-24.268c-1.991-1.15-4.444-1.15-6.435,0l-42.034,24.268C608.179,303.717,606.953,305.841,606.953,308.14z"/>
				<g>
					<polygon style="fill:#7679D1;" points="641.895,319.934 626.421,360.867 635.196,356.871 639.347,365.954 655.445,323.435 
											"/>
					<polygon style="fill:#7679D1;" points="668.948,319.934 684.422,360.867 675.648,356.871 671.497,365.954 655.399,323.435 
											"/>
					<g>
						<circle style="fill:#493D72;" cx="655.422" cy="317.22" r="25.724"/>
						<circle style="fill:#B8B9FC;" cx="655.422" cy="317.22" r="20.725"/>
						<circle style="fill:#7679D1;" cx="655.422" cy="317.22" r="18.29"/>
						<path style="fill:#FFBA1F;" d="M665.203,315.85c0-3.092-2.506-5.598-5.598-5.598c-1.673,0-3.158,0.749-4.183,1.913
							c-1.026-1.163-2.51-1.913-4.183-1.913c-3.091,0-5.598,2.506-5.598,5.598c0,1.558,0.638,2.965,1.665,3.979l-0.004,0
							l8.119,7.329l8.119-7.329h-0.002C664.565,318.815,665.203,317.408,665.203,315.85z M655.422,319.562l-0.022,0.001
							c0.008-0.009,0.015-0.018,0.022-0.027c0.008,0.009,0.015,0.019,0.023,0.027L655.422,319.562z"/>
					</g>
				</g>
			</g>
			
				<line style="fill:none;stroke:#FFFFFF;stroke-linecap:round;stroke-linejoin:round;stroke-miterlimit:10;" x1="521.245" y1="301.452" x2="590.141" y2="325.699"/>
		</g>
		<g>
			<g>
				<path style="fill:#EB6592;" d="M563.041,476.321c-2.026,0-4.026-0.535-5.783-1.549l-30.229-17.455
					c-3.567-2.06-5.783-5.897-5.783-10.017v-34.905c0-4.118,2.216-7.957,5.783-10.018l30.229-17.452
					c3.514-2.026,8.053-2.027,11.567-0.001l30.229,17.455c3.567,2.06,5.783,5.897,5.783,10.017v34.905
					c0,4.118-2.216,7.957-5.783,10.018l-30.229,17.452C567.067,475.784,565.067,476.321,563.041,476.321z M563.041,384.26
					c-1.872,0-3.719,0.495-5.341,1.432l-30.229,17.452c-3.294,1.902-5.341,5.447-5.341,9.251v34.905c0,3.804,2.047,7.349,5.341,9.25
					l30.229,17.455c3.249,1.873,7.44,1.873,10.682-0.001l30.229-17.452c3.294-1.902,5.341-5.447,5.341-9.251v-34.905
					c0-3.804-2.047-7.349-5.341-9.25l-30.229-17.455C566.759,384.755,564.912,384.26,563.041,384.26z"/>
				<path style="fill:#DCDEFF;" d="M525.224,411.73v36.236c0,2.299,1.227,4.424,3.218,5.573l31.381,18.118
					c1.991,1.15,4.444,1.15,6.435,0l31.381-18.118c1.991-1.15,3.218-3.274,3.218-5.573V411.73c0-2.299-1.227-4.424-3.218-5.573
					l-31.381-18.118c-1.991-1.15-4.444-1.15-6.435,0l-31.381,18.118C526.451,407.307,525.224,409.431,525.224,411.73z"/>
				<g>
					<g>
						<g>
							
								<rect x="568.557" y="430.86" transform="matrix(0.7071 -0.7071 0.7071 0.7071 -141.143 530.8767)" style="fill:#B8B9FC;" width="3.398" height="9.908"/>
							<path style="fill:#493D72;" d="M587.916,451.028l-2.446,2.446c-0.484,0.484-1.269,0.484-1.753,0l-13.337-13.337
								c-0.484-0.484-0.484-1.269,0-1.753l2.446-2.446c0.484-0.484,1.269-0.484,1.753,0l13.337,13.337
								C588.4,449.759,588.4,450.544,587.916,451.028z"/>
						</g>
						<g>
							<circle style="fill:#493D72;" cx="555.006" cy="420.564" r="19.177"/>
							<path style="fill:#7679D1;" d="M565.815,409.754c5.97,5.97,5.97,15.649,0,21.619c-5.97,5.97-15.649,5.97-21.619,0
								c-5.97-5.97-5.97-15.649,0-21.619S559.845,403.784,565.815,409.754z"/>
						</g>
					</g>
					<polygon style="fill:#FFBA1F;" points="543.541,414.026 553.196,418.798 574.182,401.387 553.72,426.029 					"/>
				</g>
			</g>
			
				<line style="fill:none;stroke:#FFFFFF;stroke-linecap:round;stroke-linejoin:round;stroke-miterlimit:10;" x1="467.222" y1="335.51" x2="525.935" y2="391.973"/>
		</g>
		<g>
			<g>
				<path style="fill:#EB6592;" d="M598.643,230.573c-1.66,0-3.298-0.439-4.737-1.27l-24.762-14.297
					c-2.922-1.686-4.737-4.831-4.737-8.205v-28.593c0-3.375,1.816-6.519,4.737-8.205l24.762-14.297c2.877-1.661,6.598-1.661,9.475,0
					l24.763,14.297c2.922,1.686,4.737,4.831,4.737,8.205v28.593c0,3.375-1.816,6.519-4.737,8.205l-24.763,14.297
					C601.942,230.134,600.303,230.573,598.643,230.573z M598.643,155.162c-1.534,0-3.046,0.405-4.375,1.172l-24.762,14.297
					c-2.698,1.558-4.375,4.462-4.375,7.578v28.593c0,3.117,1.677,6.021,4.375,7.578l24.762,14.297c2.658,1.534,6.093,1.534,8.751,0
					l24.763-14.297c2.698-1.558,4.375-4.462,4.375-7.578v-28.593c0-3.117-1.677-6.021-4.375-7.578l-24.763-14.297
					C601.69,155.567,600.177,155.162,598.643,155.162z"/>
				<path style="fill:#DCDEFF;" d="M567.666,178.335v28.339c0,2.299,1.227,4.424,3.218,5.573l24.543,14.17
					c1.991,1.15,4.444,1.15,6.435,0l24.543-14.17c1.991-1.149,3.218-3.274,3.218-5.573v-28.339c0-2.299-1.227-4.423-3.218-5.573
					l-24.543-14.17c-1.991-1.15-4.444-1.15-6.435,0l-24.543,14.17C568.892,173.912,567.666,176.036,567.666,178.335z"/>
				<g>
					<path style="fill:#FFBA1F;" d="M597.448,214.532c-11.493-5.371-18.633-15.708-18.633-26.977v-9.701l3.051,0.246
						c0.486,0.04,0.981,0.059,1.471,0.059h0.001c7.679,0,13.4-4.847,13.457-4.896l1.855-1.596l1.851,1.602
						c0.05,0.043,5.771,4.89,13.449,4.89c0.49,0,0.985-0.019,1.472-0.059l3.051-0.246v9.701c0,11.27-7.14,21.607-18.632,26.977
						l-1.196,0.559L597.448,214.532z"/>
					<g>
						<path style="fill:#7679D1;" d="M598.644,175.397c0,0-7.227,6.307-17.005,5.518v6.64c0,10.161,6.516,19.518,17.005,24.42l0,0
							V175.397z"/>
						<path style="fill:#493D72;" d="M598.644,175.397c0,0,7.227,6.307,17.005,5.518v6.64c0,10.161-6.516,19.518-17.005,24.42l0,0
							V175.397z"/>
					</g>
				</g>
			</g>
			
				<line style="fill:none;stroke:#FFFFFF;stroke-linecap:round;stroke-linejoin:round;stroke-miterlimit:10;" x1="503.499" y1="216.481" x2="555.006" y2="201.725"/>
		</g>
	</g>
	<g>
		<g>
			
				<text transform="matrix(1 0 0 1 327.8052 86.2832)" style="fill:#FFFFFF; font-family:'Montserrat-Black'; font-size:37.4007px;">CORE</text>
		</g>
		<text transform="matrix(1 0 0 1 303.252 120.2002)" style="fill:#493D72; font-family:'Montserrat-Black'; font-size:37.4007px;">VALUES</text>
	</g>
</g>
</svg>
